<?xml version="1.0" encoding="UTF-8" standalone="no"?>
<svg width="23px" height="39px" viewBox="0 0 23 39" version="1.1" xmlns="http://www.w3.org/2000/svg" xmlns:xlink="http://www.w3.org/1999/xlink">
    <!-- Generator: Sketch 3.6 (26304) - http://www.bohemiancoding.com/sketch -->
    <title>Path 601 Copy</title>
    <desc>Created with Sketch.</desc>
    <defs></defs>
    <g id="Visual-Design" stroke="none" stroke-width="1" fill="none" fill-rule="evenodd" opacity="0.4">
        <g id="eStore-Connect-Express" transform="translate(-175.000000, -198.000000)" fill="#6F829E">
            <path d="M186.034189,232.08733 L186.034189,229.971749 L193.817123,229.971749 L191.25609,232.08733 L186.034189,232.08733 Z M186.034189,233.497718 L186.034189,236.400962 L189.548735,233.497718 L186.034189,233.497718 Z M186.034189,228.561362 L186.034189,228.27661 L181.291923,228.351096 L181.393409,225.740587 L198,225.740587 L198,226.516419 L195.524478,228.561362 L186.034189,228.561362 Z M181.44824,224.3302 L181.557901,221.509425 L195.930237,221.509425 L198,223.128633 L198,224.3302 L181.44824,224.3302 Z M185.923641,220.099038 L183.714497,217.983457 L191.423144,217.983457 L194.1274,220.099038 L185.923641,220.099038 Z M182.241734,216.57307 L180.032591,214.457489 L186.916051,214.457489 L189.620307,216.57307 L182.241734,216.57307 Z M178.559828,213.047102 L175.614303,210.226327 L191.588241,210.226327 L191.588241,212.897656 L184.922184,212.897656 L185.113214,213.047102 L178.559828,213.047102 Z M175,208.81594 L178.406915,205.995165 L187.306294,205.995165 L187.306294,206.224646 L191.588241,206.224646 L191.588241,208.81594 L175,208.81594 Z M180.110373,204.584778 L181.81383,203.17439 L187.306294,203.17439 L187.306294,204.584778 L180.110373,204.584778 Z M183.517288,201.764003 L187.2117,198.705194 L187.306294,198 L187.306294,201.764003 L183.517288,201.764003 Z" id="Path-601-Copy"></path>
        </g>
    </g>
</svg>